<svg xmlns="http://www.w3.org/2000/svg" width="30.725" height="30.724" viewBox="1253.634 6884.5 30.725 30.724"><path d="M1274.82 6884.5h-11.613a9.525 9.525 0 0 0-6.773 2.799 9.51 9.51 0 0 0-2.8 6.74v11.611a9.526 9.526 0 0 0 2.8 6.774 9.526 9.526 0 0 0 6.773 2.8h11.612a9.506 9.506 0 0 0 6.74-2.8 9.526 9.526 0 0 0 2.8-6.774v-11.61a9.51 9.51 0 0 0-2.8-6.741 9.505 9.505 0 0 0-6.74-2.799Zm3.49 7.223c0-.622-.553-1.14-1.174-1.14-.657 0-1.176.518-1.176 1.14 0 .656.519 1.175 1.176 1.175.62 0 1.174-.52 1.174-1.175Zm-9.297.52a7.6 7.6 0 0 0-5.39 2.244 7.55 7.55 0 0 0-2.213 5.357c0 2.11.83 4.01 2.212 5.391a7.568 7.568 0 0 0 5.39 2.212 7.55 7.55 0 0 0 5.358-2.212 7.597 7.597 0 0 0 2.246-5.391c0-2.073-.863-3.974-2.246-5.357-1.383-1.382-3.283-2.245-5.357-2.245Zm0 12.578a4.962 4.962 0 0 1-3.524-8.468c.898-.898 2.143-1.486 3.524-1.486 1.347 0 2.592.588 3.49 1.487a4.834 4.834 0 0 1 1.487 3.49c0 1.383-.588 2.627-1.486 3.525a4.943 4.943 0 0 1-3.491 1.452Zm12.718.83a6.92 6.92 0 0 1-2.039 4.908 6.9 6.9 0 0 1-4.873 2.039h-11.612a6.92 6.92 0 0 1-4.907-2.04 6.92 6.92 0 0 1-2.04-4.908v-11.61c0-1.903.796-3.63 2.04-4.874a6.916 6.916 0 0 1 4.907-2.04h11.612c1.9 0 3.63.795 4.873 2.04a6.895 6.895 0 0 1 2.04 4.873v11.611Z" fill="#fefefe" fill-rule="evenodd" data-name="Контур 4"/></svg>