<svg xmlns="http://www.w3.org/2000/svg" width="25.575" height="25.505" viewBox="1432.166 6887.5 25.575 25.505"><g data-name="Сгруппировать 1"><path d="M1435.242 6887.5a3.083 3.083 0 0 1 3.076 3.076c0 1.762-1.486 3.076-3.076 3.041-1.625.035-3.076-1.313-3.076-3.076 0-1.659 1.382-3.041 3.076-3.041Z" fill="#fefefe" fill-rule="evenodd" data-name="Контур 23"/><path d="M1437.04 6913.005h-3.595c-.484 0-.864-.38-.864-.83v-15.344c0-.484.38-.864.864-.864h3.594c.45 0 .83.38.83.864v15.344c0 .45-.38.83-.83.83Z" fill="#fefefe" fill-rule="evenodd" data-name="Контур 24"/><path d="M1457.74 6901.359c0-3.214-2.592-5.806-5.84-5.806H1451a5.143 5.143 0 0 0-4.25 2.212 1.936 1.936 0 0 0-.277.449h-.07v-1.901a.346.346 0 0 0-.345-.346h-4.493a.372.372 0 0 0-.345.346v16.347c0 .173.173.345.345.345h4.597a.346.346 0 0 0 .345-.345v-9.435a3.018 3.018 0 0 1 2.938-3.007c.83 0 1.59.311 2.143.865.518.552.864 1.278.864 2.107v9.47c0 .173.138.345.345.345h4.597a.346.346 0 0 0 .346-.345v-11.301Z" fill="#fefefe" fill-rule="evenodd" data-name="Контур 25"/></g></svg>