<svg xmlns="http://www.w3.org/2000/svg" width="23.622" height="34.625" viewBox="-0.069 0 23.622 34.625"><path d="M11.715 34.625c1.266-.991 8.147-12.991 9.303-15.248 1.21-2.367 2.202-4.845 2.477-6.991.165-1.542 0-3.138-.77-4.9-.827-2.091-2.368-4.018-4.295-5.394C16.45.66 14.082 0 11.715 0s-4.68.66-6.661 2.092C3.127 3.468 1.586 5.395.705 7.486c-.715 1.762-.88 3.358-.715 4.9.22 2.146 1.266 4.624 2.477 6.99 1.156 2.258 8.037 14.258 9.248 15.249Zm0-27.579c2.642 0 4.734 2.092 4.734 4.68a4.699 4.699 0 0 1-4.734 4.733c-2.588 0-4.68-2.092-4.68-4.734a4.675 4.675 0 0 1 4.68-4.679Z" fill="#fff" fill-rule="evenodd" data-name="Контур 3"/></svg>