<svg xmlns="http://www.w3.org/2000/svg" width="300.01" height="25.802" viewBox="107.28 183.654 300.01 25.802"><path d="M124 209h-16.72v-25.346h6.536V203.3H124v5.7Zm37.354.456c-3.952 0-6.941-.975-8.968-2.926-2.027-1.95-3.04-4.547-3.04-7.79v-15.086h6.65v14.858c0 1.545.462 2.793 1.387 3.743.925.95 2.248 1.425 3.971 1.425 1.697 0 3.008-.475 3.933-1.425.925-.95 1.387-2.198 1.387-3.743v-14.858h6.612v15.048c0 3.268-1.007 5.877-3.021 7.828-2.014 1.95-4.984 2.926-8.911 2.926Zm62.852-.456h-6.308l-10.716-14.668V209h-6.536v-25.346h6.726l10.26 13.946v-13.946h6.574V209Zm51.984 0h-7.41l-1.254-3.648h-9.994L256.278 209h-7.41l9.538-25.346h8.208L276.19 209Zm-10.45-9.348-3.23-9.538-3.23 9.538h6.46ZM322.474 209h-7.486l-4.256-8.512h-3.344V209h-6.536v-25.346h12.692c2.736 0 4.89.798 6.46 2.394 1.57 1.596 2.356 3.61 2.356 6.042 0 2.027-.5 3.68-1.501 4.959-1 1.28-2.185 2.16-3.553 2.641l5.168 9.31Zm-9.918-14.212c.887 0 1.634-.24 2.242-.722.608-.481.912-1.153.912-2.014 0-.836-.304-1.495-.912-1.976-.608-.481-1.355-.722-2.242-.722h-5.168v5.434h5.168ZM355.306 209h-6.536v-25.346h6.536V209Zm51.984 0h-7.41l-1.254-3.648h-9.994L387.378 209h-7.41l9.538-25.346h8.208L407.29 209Zm-10.45-9.348-3.23-9.538-3.23 9.538h6.46Z" fill="#fff" fill-rule="evenodd" data-name="Контур 2"/></svg>