<svg xmlns="http://www.w3.org/2000/svg" width="32.106" height="26.093" viewBox="1317.395 6886.5 32.106 26.093"><path d="M1317.395 6909.69a18.81 18.81 0 0 0 10.057 2.903c10.368 0 18.8-8.433 18.8-18.801v-.76c.38-.311 2.696-2.178 3.25-3.387 0 0-1.867.794-3.733.967.173-.103 2.557-1.727 2.868-3.663 0 0-1.313.726-3.18 1.348-.31.103-.656.207-.967.31a6.55 6.55 0 0 0-4.838-2.107c-3.63 0-6.601 2.972-6.601 6.6 0 .52.069 1.003.173 1.487-.519 0-8.26-.45-13.548-6.843 0 0-3.145 4.32 1.9 8.743 0 0-1.554-.068-2.868-.863 0 0-.484 5.218 5.219 6.566 0 0-1.106.415-2.903.104 0 0 1.002 4.216 6.048 4.63 0 0-3.975 3.596-9.677 2.766Z" fill="#fff" fill-rule="evenodd" data-name="Контур 5"/></svg>