<svg xmlns="http://www.w3.org/2000/svg" width="127.296" height="9.295" viewBox="443 47 127.296 9.295"><path d="m452.958 47-1.95 7.163L448.863 47h-.78l-2.067 7.163L444.001 47H443l2.626 9.295h.78l2.08-7.202 2.158 7.202h.78L453.946 47h-.988Zm5.928 9.295h6.123v-.975h-5.148v-3.185h3.757v-.975h-3.757v-3.185h5.148V47h-6.123v9.295Zm16.224-4.81c.533-.481.858-1.17.858-1.924A2.566 2.566 0 0 0 473.407 47h-3.432v8.918l-.026.377h3.926a2.566 2.566 0 0 0 2.561-2.561c0-.962-.533-1.807-1.326-2.25Zm-1.235 3.835h-2.938v-3.185h2.938a1.592 1.592 0 0 1 0 3.185Zm-.468-4.16h-2.47v-3.185h2.47c.884 0 1.599.715 1.599 1.586 0 .884-.715 1.599-1.599 1.599Zm8.502 5.135a.535.535 0 0 0 .533-.533.544.544 0 0 0-.533-.533.535.535 0 0 0-.533.533c0 .299.234.533.533.533Zm20.67-3.653v.052c0 1.456-1.235 2.639-2.691 2.639-1.469 0-2.691-1.183-2.691-2.652V47h-.975v6.006h.013a3.678 3.678 0 0 0 3.653 3.289 3.656 3.656 0 0 0 3.653-3.653V47h-.962v5.642Zm10.049-4.667V47h-4.147v.975h1.586v7.358h-1.586v.962h4.147v-.962h-1.586v-7.358h1.586Zm5.473 8.32a.535.535 0 0 0 .533-.533.544.544 0 0 0-.533-.533.535.535 0 0 0-.533.533c0 .299.234.533.533.533ZM535.378 47h-2.964v9.295h2.964a4.647 4.647 0 0 0 4.641-4.654A4.644 4.644 0 0 0 535.378 47Zm0 8.333h-1.989v-7.371h1.989a3.687 3.687 0 0 1 0 7.371Zm9.581.962h6.123v-.975h-5.148v-3.185h3.757v-.975h-3.757v-3.185h5.148V47h-6.123v9.295Zm15.223-1.651L557.049 47h-1.027l3.796 9.295h.728L564.29 47h-1.027l-3.081 7.644Zm9.581 1.65a.535.535 0 0 0 .533-.532.544.544 0 0 0-.533-.533.535.535 0 0 0-.533.533c0 .299.234.533.533.533Z" fill="#fff" fill-rule="evenodd" data-name="Контур 1"/></svg>