<svg xmlns="http://www.w3.org/2000/svg" width="34.353" height="24.054" viewBox="1187.5 6887.5 34.353 24.054"><path d="M1221.127 6891.267c-.38-1.486-1.555-2.626-3.041-3.041-2.661-.726-13.41-.726-13.41-.726s-10.748 0-13.444.726c-1.451.38-2.626 1.555-3.04 3.041-.692 2.696-.692 8.26-.692 8.26s0 5.598.691 8.26a4.355 4.355 0 0 0 3.041 3.041c2.696.726 13.444.726 13.444.726s10.749 0 13.41-.691c1.486-.415 2.66-1.556 3.041-3.042.726-2.696.726-8.26.726-8.26s0-5.598-.726-8.294Zm-19.872 13.41 8.916-5.15-8.916-5.15v10.3Z" fill="#fefefe" fill-rule="evenodd" data-name="Контур 6"/></svg>